<svg width="35" height="33" viewBox="0 0 35 33" fill="none" xmlns="http://www.w3.org/2000/svg">
<path d="M8.75 6.25V1.25C8.75 0.918479 8.8817 0.600537 9.11612 0.366116C9.35054 0.131696 9.66848 0 10 0C10.3315 0 10.6495 0.131696 10.8839 0.366116C11.1183 0.600537 11.25 0.918479 11.25 1.25V6.25C11.25 6.58152 11.1183 6.89946 10.8839 7.13388C10.6495 7.3683 10.3315 7.5 10 7.5C9.66848 7.5 9.35054 7.3683 9.11612 7.13388C8.8817 6.89946 8.75 6.58152 8.75 6.25ZM15 7.5C15.3315 7.5 15.6495 7.3683 15.8839 7.13388C16.1183 6.89946 16.25 6.58152 16.25 6.25V1.25C16.25 0.918479 16.1183 0.600537 15.8839 0.366116C15.6495 0.131696 15.3315 0 15 0C14.6685 0 14.3505 0.131696 14.1161 0.366116C13.8817 0.600537 13.75 0.918479 13.75 1.25V6.25C13.75 6.58152 13.8817 6.89946 14.1161 7.13388C14.3505 7.3683 14.6685 7.5 15 7.5ZM20 7.5C20.3315 7.5 20.6495 7.3683 20.8839 7.13388C21.1183 6.89946 21.25 6.58152 21.25 6.25V1.25C21.25 0.918479 21.1183 0.600537 20.8839 0.366116C20.6495 0.131696 20.3315 0 20 0C19.6685 0 19.3505 0.131696 19.1161 0.366116C18.8817 0.600537 18.75 0.918479 18.75 1.25V6.25C18.75 6.58152 18.8817 6.89946 19.1161 7.13388C19.3505 7.3683 19.6685 7.5 20 7.5ZM35 16.25V17.5C34.9995 19.0899 34.3931 20.6199 33.3042 21.7784C32.2154 22.937 30.7259 23.637 29.1391 23.7359C28.2864 26.1478 26.8347 28.3033 24.9203 30H28.75C29.0815 30 29.3995 30.1317 29.6339 30.3661C29.8683 30.6005 30 30.9185 30 31.25C30 31.5815 29.8683 31.8995 29.6339 32.1339C29.3995 32.3683 29.0815 32.5 28.75 32.5H1.25C0.918479 32.5 0.600537 32.3683 0.366116 32.1339C0.131696 31.8995 0 31.5815 0 31.25C0 30.9185 0.131696 30.6005 0.366116 30.3661C0.600537 30.1317 0.918479 30 1.25 30H5.08438C3.48953 28.591 2.21171 26.8597 1.33528 24.9205C0.458845 22.9812 0.00373572 20.8781 0 18.75V11.25C0 10.9185 0.131696 10.6005 0.366116 10.3661C0.600537 10.1317 0.918479 10 1.25 10H28.75C30.4076 10 31.9973 10.6585 33.1694 11.8306C34.3415 13.0027 35 14.5924 35 16.25ZM27.5 12.5H2.5V18.75C2.50482 21.097 3.16808 23.3956 4.41438 25.3843C5.66067 27.3731 7.43998 28.9723 9.55 30H20.45C22.56 28.9723 24.3393 27.3731 25.5856 25.3843C26.8319 23.3956 27.4952 21.097 27.5 18.75V12.5ZM32.5 16.25C32.4998 15.4747 32.2592 14.7186 31.8115 14.0856C31.3638 13.4527 30.7309 12.9741 30 12.7156V18.75C29.9991 19.535 29.9364 20.3186 29.8125 21.0938C30.5881 20.8646 31.2688 20.3909 31.7531 19.7432C32.2375 19.0956 32.4994 18.3087 32.5 17.5V16.25Z" fill="black" fill-opacity="0.1"/>
</svg>
