<svg width="33" height="30" viewBox="0 0 33 30" fill="none" xmlns="http://www.w3.org/2000/svg">
<path d="M32.5 10C32.5007 9.88378 32.4849 9.76805 32.4531 9.65625L30.2109 1.8125C30.0602 1.29205 29.7452 0.834318 29.3129 0.507646C28.8807 0.180975 28.3543 0.00289522 27.8125 0H4.6875C4.14568 0.00289522 3.61933 0.180975 3.18706 0.507646C2.75478 0.834318 2.43977 1.29205 2.28906 1.8125L0.0484384 9.65625C0.01616 9.76798 -0.000147409 9.88371 1.00394e-06 10V12.5C1.00394e-06 13.4703 0.225908 14.4272 0.659831 15.2951C1.09375 16.1629 1.72378 16.9178 2.5 17.5V28.75C2.5 29.0815 2.6317 29.3995 2.86612 29.6339C3.10054 29.8683 3.41848 30 3.75 30H28.75C29.0815 30 29.3995 29.8683 29.6339 29.6339C29.8683 29.3995 30 29.0815 30 28.75V17.5C30.7762 16.9178 31.4062 16.1629 31.8402 15.2951C32.2741 14.4272 32.5 13.4703 32.5 12.5V10ZM4.6875 2.5H27.8125L29.5969 8.75H2.90781L4.6875 2.5ZM12.5 11.25H20V12.5C20 13.4946 19.6049 14.4484 18.9017 15.1517C18.1984 15.8549 17.2446 16.25 16.25 16.25C15.2554 16.25 14.3016 15.8549 13.5984 15.1517C12.8951 14.4484 12.5 13.4946 12.5 12.5V11.25ZM10 11.25V12.5C9.99977 13.1449 9.83326 13.7788 9.51655 14.3405C9.19983 14.9022 8.74362 15.3727 8.19197 15.7067C7.64032 16.0406 7.01188 16.2267 6.36734 16.2468C5.72281 16.267 5.08396 16.1207 4.5125 15.8219C4.42555 15.7542 4.3299 15.6985 4.22813 15.6562C3.69856 15.3172 3.26274 14.8505 2.96076 14.2989C2.65878 13.7474 2.50034 13.1288 2.5 12.5V11.25H10ZM27.5 27.5H5V18.625C5.4115 18.708 5.83022 18.7498 6.25 18.75C7.22028 18.75 8.17724 18.5241 9.04509 18.0902C9.91293 17.6562 10.6678 17.0262 11.25 16.25C11.8322 17.0262 12.5871 17.6562 13.4549 18.0902C14.3228 18.5241 15.2797 18.75 16.25 18.75C17.2203 18.75 18.1772 18.5241 19.0451 18.0902C19.9129 17.6562 20.6678 17.0262 21.25 16.25C21.8322 17.0262 22.5871 17.6562 23.4549 18.0902C24.3228 18.5241 25.2797 18.75 26.25 18.75C26.6698 18.7498 27.0885 18.708 27.5 18.625V27.5ZM28.2703 15.6562C28.1699 15.6986 28.0753 15.7537 27.9891 15.8203C27.4177 16.1194 26.7788 16.2661 26.1342 16.2461C25.4895 16.2262 24.8609 16.0404 24.3091 15.7066C23.7573 15.3728 23.3008 14.9023 22.9839 14.3406C22.667 13.7789 22.5004 13.1449 22.5 12.5V11.25H30V12.5C29.9995 13.1289 29.8408 13.7476 29.5386 14.2992C29.2363 14.8507 28.8002 15.3174 28.2703 15.6562Z" fill="#3E3E3E" fill-opacity="0.8"/>
</svg>
