<svg width="33" height="33" viewBox="0 0 33 33" fill="none" xmlns="http://www.w3.org/2000/svg">
<path d="M16.25 8.75C14.7666 8.75 13.3166 9.18987 12.0832 10.014C10.8499 10.8381 9.88856 12.0094 9.3209 13.3799C8.75325 14.7503 8.60472 16.2583 8.89411 17.7132C9.1835 19.168 9.89781 20.5044 10.9467 21.5533C11.9956 22.6022 13.332 23.3165 14.7868 23.6059C16.2417 23.8953 17.7497 23.7468 19.1201 23.1791C20.4906 22.6114 21.6619 21.6501 22.486 20.4168C23.3101 19.1834 23.75 17.7334 23.75 16.25C23.7479 14.2615 22.9571 12.3551 21.551 10.949C20.1449 9.54291 18.2385 8.75207 16.25 8.75ZM16.25 21.25C15.2611 21.25 14.2944 20.9568 13.4721 20.4073C12.6499 19.8579 12.009 19.077 11.6306 18.1634C11.2522 17.2498 11.1531 16.2445 11.3461 15.2745C11.539 14.3046 12.0152 13.4137 12.7145 12.7145C13.4137 12.0152 14.3046 11.539 15.2745 11.3461C16.2445 11.1531 17.2498 11.2522 18.1634 11.6306C19.077 12.009 19.8579 12.6499 20.4073 13.4721C20.9568 14.2944 21.25 15.2611 21.25 16.25C21.25 17.5761 20.7232 18.8479 19.7855 19.7855C18.8479 20.7232 17.5761 21.25 16.25 21.25ZM23.75 0H8.75C6.43012 0.0024816 4.20596 0.925151 2.56556 2.56556C0.925151 4.20596 0.0024816 6.43012 0 8.75V23.75C0.0024816 26.0699 0.925151 28.294 2.56556 29.9344C4.20596 31.5749 6.43012 32.4975 8.75 32.5H23.75C26.0699 32.4975 28.294 31.5749 29.9344 29.9344C31.5749 28.294 32.4975 26.0699 32.5 23.75V8.75C32.4975 6.43012 31.5749 4.20596 29.9344 2.56556C28.294 0.925151 26.0699 0.0024816 23.75 0ZM30 23.75C30 25.4076 29.3415 26.9973 28.1694 28.1694C26.9973 29.3415 25.4076 30 23.75 30H8.75C7.0924 30 5.50269 29.3415 4.33058 28.1694C3.15848 26.9973 2.5 25.4076 2.5 23.75V8.75C2.5 7.0924 3.15848 5.50269 4.33058 4.33058C5.50269 3.15848 7.0924 2.5 8.75 2.5H23.75C25.4076 2.5 26.9973 3.15848 28.1694 4.33058C29.3415 5.50269 30 7.0924 30 8.75V23.75ZM26.25 8.125C26.25 8.49584 26.14 8.85835 25.934 9.16669C25.728 9.47504 25.4351 9.71536 25.0925 9.85727C24.7499 9.99919 24.3729 10.0363 24.0092 9.96397C23.6455 9.89163 23.3114 9.71305 23.0492 9.45083C22.787 9.1886 22.6084 8.85451 22.536 8.4908C22.4637 8.12708 22.5008 7.75008 22.6427 7.40747C22.7846 7.06486 23.025 6.77202 23.3333 6.56599C23.6416 6.35997 24.0042 6.25 24.375 6.25C24.8723 6.25 25.3492 6.44754 25.7008 6.79917C26.0525 7.15081 26.25 7.62772 26.25 8.125Z" fill="#3E3E3E" fill-opacity="0.8"/>
</svg>
